# xmcd CD database file
#
# Track frame offsets:
#	150
#	20884
#	38581
#	56279
#	69237
#	89627
#	102406
#	120873
#	136699
#	164519
#	182171
#	198634
#	218457
#	237672
#	254941
#
# Disc length: 3685 seconds
#
# Revision: 0
# Processed by: cddbd v1.5PL3 Copyright (c) Steve Scherf et al.
# Submitted via: CDex 1.51
#
DISCID=d70e630f
DTITLE=Various Artist - Best in Texas - Connected
DYEAR=1900
DGENRE=Country
TTITLE0=Creager- Fun All Wrong
TTITLE1=Morrow - Nothing Better
TTITLE2=Reckless Kelley - Vancouver
TTITLE3=C Robison - Right Man for the Job
TTITLE4=Fowler - Not Loving Anymore
TTITLE5=Ingram - Attitude and Driving
TTITLE6=Pauline Reese - Trail to Monterey
TTITLE7=Wade Bowen - Get Away
TTITLE8=Creager - Late Night Case of the Blues
TTITLE9=Phil Pritchet - Tougher than the Rest
TTITLE10=Morrow - Love me like you used to do
TTITLE11=C Robison - My Hometown
TTITLE12=Ingram - A Little Bit
TTITLE13=Boland - Drinking Song
TTITLE14=Fowler - 100% Texan
EXTD=
EXTT0=
EXTT1=
EXTT2=
EXTT3=
EXTT4=
EXTT5=
EXTT6=
EXTT7=
EXTT8=
EXTT9=
EXTT10=
EXTT11=
EXTT12=
EXTT13=
EXTT14=
PLAYORDER=
